<?xml version="1.0" encoding="UTF-8" standalone="no" ?>
<!DOCTYPE svg PUBLIC "-//W3C//DTD SVG 1.1//EN" "http://www.w3.org/Graphics/SVG/1.1/DTD/svg11.dtd">
<svg xmlns="http://www.w3.org/2000/svg" xmlns:xlink="http://www.w3.org/1999/xlink" version="1.1" width="500" height="500" viewBox="0 0 500 500" xml:space="preserve">
<desc>Created with Fabric.js 3.6.3</desc>
<defs>
</defs>
<rect x="0" y="0" width="100%" height="100%" fill="#F4F3EF"></rect>
<g transform="matrix(0.8176854765397916 0 0 0.8176854765397916 250.49999999999994 239.36469904199296)"  >
<g style=""   >
		<g transform="matrix(0.051115861350236796 -0.9986927298816305 0.9986927298816305 0.051115861350236796 -0.006247642608244064 0.003494473616129312)"  >
<circle style="stroke: none; stroke-width: 1; stroke-dasharray: none; stroke-linecap: butt; stroke-dashoffset: 0; stroke-linejoin: miter; stroke-miterlimit: 4; fill: rgb(0,0,0); fill-rule: nonzero; opacity: 1;"  cx="0" cy="0" r="103.17" />
</g>
		<g transform="matrix(1 0 0 1 -0.0049999999999954525 0.09499999999999886)"  >
<circle style="stroke: none; stroke-width: 1; stroke-dasharray: none; stroke-linecap: butt; stroke-dashoffset: 0; stroke-linejoin: miter; stroke-miterlimit: 4; fill: rgb(64,183,211); fill-rule: nonzero; opacity: 1;"  cx="0" cy="0" r="93.42" />
</g>
		<g transform="matrix(1 0 0 1 -0.0049999999999954525 0.09499999999999886)"  >
<circle style="stroke: none; stroke-width: 1; stroke-dasharray: none; stroke-linecap: butt; stroke-dashoffset: 0; stroke-linejoin: miter; stroke-miterlimit: 4; fill: rgb(255,255,255); fill-rule: nonzero; opacity: 1;"  cx="0" cy="0" r="82.29" />
</g>
</g>
</g>
<g transform="matrix(0.9372444089822852 0 0 0.9372444089822852 250.49999999999994 239.364699041993)"  >
<g style=""   >
		<g transform="matrix(1 0 0 1 -0.5 0.5)"  >
<path style="stroke: none; stroke-width: 1; stroke-dasharray: none; stroke-linecap: butt; stroke-dashoffset: 0; stroke-linejoin: miter; stroke-miterlimit: 4; fill: rgb(0,0,0); fill-rule: nonzero; opacity: 1;"  transform=" translate(-46.53, -46.5)" d="M 46.53 93 c -25.64 0 -46.5 -20.86 -46.5 -46.5 C 0.03 20.86 20.89 0 46.53 0 c 25.64 0 46.5 20.86 46.5 46.5 C 93.03 72.14 72.18 93 46.53 93 z M 46.53 3 C 22.55 3 3.03 22.51 3.03 46.5 c 0 23.99 19.51 43.5 43.5 43.5 c 23.99 0 43.5 -19.51 43.5 -43.5 C 90.03 22.51 70.52 3 46.53 3 z" stroke-linecap="round" />
</g>
		<g transform="matrix(1 0 0 1 1.848711322944638 24.281376727397372)"  >
<path style="stroke: none; stroke-width: 1; stroke-dasharray: none; stroke-linecap: butt; stroke-dashoffset: 0; stroke-linejoin: miter; stroke-miterlimit: 4; fill: rgb(0,0,0); fill-rule: nonzero; opacity: 1;"  transform=" translate(-48.87871132294464, -70.28137672739737)" d="M 31.53 52.5 c 2.63 -1.12 6.61 -3.51 9.22 -2.13 c 1.5 0.79 2.47 1.89 3.93 2.71 c 1.47 0.82 3.29 1.67 5.02 1.58 c 1.64 -0.08 3.18 -0.6 4.84 -0.19 c 2.99 0.73 5.49 2.98 7.22 5.41 c 0.94 1.32 1.43 3.01 2.35 4.25 c 1.98 2.63 7.01 -0.02 9.75 0.04 c 0.07 2.83 0.13 4.2 -1.94 6.05 c -1.49 1.33 -3.44 2.22 -4.67 3.79 c -2.22 2.8 0.26 7.27 -1.67 9.97 c -0.74 1.03 -2.79 1.11 -3.9 1.5 c -1.62 0.57 -3.16 1.41 -4.64 2.28 c -1.55 0.91 -3.05 1.64 -4.82 2.05 c -1.22 0.29 -4.88 1.23 -6.15 0.57 c -1.35 -0.71 -2.15 -4.06 -2.56 -5.36 c -0.73 -2.25 -0.48 -4.54 -0.99 -6.81 c -0.4 -1.77 -1.71 -5.15 -3.04 -6.24 c -1.38 -1.12 -3.39 -0.5 -5.11 -0.69 c -3.29 -0.38 -6.18 -1.84 -8.61 -4.02 c -2.11 -1.89 -2.06 -4.79 -1.69 -7.54 c 0.36 -2.73 1.65 -4.39 4.09 -5.51 c 2.71 -1.24 5.38 -2.55 8.03 -3.89 c 0.5 -0.26 0.96 0.42 1.35 0.18" stroke-linecap="round" />
</g>
		<g transform="matrix(1 0 0 1 1.8425953694341288 24.26941388388302)"  >
<path style="stroke: none; stroke-width: 1; stroke-dasharray: none; stroke-linecap: butt; stroke-dashoffset: 0; stroke-linejoin: miter; stroke-miterlimit: 4; fill: rgb(0,0,0); fill-rule: nonzero; opacity: 1;"  transform=" translate(-48.87259536943413, -70.26941388388302)" d="M 47.42 91.6 c -0.72 0 -1.34 -0.1 -1.81 -0.34 c -1.41 -0.74 -2.15 -2.91 -2.85 -5.26 c -0.08 -0.26 -0.15 -0.49 -0.21 -0.68 c -0.44 -1.37 -0.55 -2.73 -0.65 -4.04 c -0.08 -0.99 -0.15 -1.93 -0.36 -2.85 c -0.4 -1.75 -1.65 -4.83 -2.7 -5.69 c -0.64 -0.52 -1.62 -0.49 -2.73 -0.45 c -0.61 0.02 -1.23 0.04 -1.86 -0.03 c -3.35 -0.38 -6.43 -1.82 -9.17 -4.27 c -2.46 -2.21 -2.4 -5.49 -2.02 -8.41 c 0.4 -3.01 1.88 -5.01 4.66 -6.29 c 1.11 -0.51 2.26 -1.05 3.45 -1.62 l -0.04 -0.1 c 0.44 -0.19 0.92 -0.41 1.42 -0.65 c 0.53 -0.25 1.09 -0.51 1.67 -0.76 c 0.49 -0.24 0.98 -0.49 1.49 -0.75 c 0.36 -0.18 0.69 -0.19 0.97 -0.14 c 1.58 -0.43 3.15 -0.52 4.52 0.21 c 0.86 0.45 1.54 0.99 2.2 1.5 c 0.57 0.45 1.11 0.87 1.75 1.22 c 1.19 0.66 2.94 1.55 4.48 1.46 c 0.49 -0.02 0.97 -0.09 1.48 -0.16 c 1.15 -0.16 2.34 -0.32 3.65 0 c 3.86 0.94 6.54 4.04 7.8 5.8 c 0.51 0.72 0.88 1.5 1.25 2.25 c 0.35 0.73 0.68 1.42 1.09 1.97 c 0.95 1.26 3.29 0.72 5.54 0.19 c 1.24 -0.29 2.41 -0.58 3.43 -0.55 l 0.96 0.02 l 0.03 1.1 c 0.07 2.84 0.11 4.55 -2.28 6.68 c -0.63 0.56 -1.32 1.04 -1.99 1.5 c -0.98 0.68 -1.9 1.32 -2.56 2.16 c -0.91 1.15 -0.82 2.79 -0.72 4.53 c 0.11 1.87 0.22 3.81 -0.92 5.4 c -0.74 1.04 -2.18 1.35 -3.34 1.6 c -0.4 0.09 -0.78 0.17 -1.05 0.26 c -1.6 0.57 -3.15 1.43 -4.46 2.2 c -1.35 0.8 -3.02 1.68 -5.1 2.17 l -0.26 0.06 C 50.48 91.25 48.77 91.6 47.42 91.6 z M 36.94 70.27 c 1.08 0 2.21 0.14 3.17 0.91 c 1.69 1.37 3.03 5.24 3.39 6.79 c 0.24 1.07 0.33 2.12 0.41 3.14 c 0.1 1.25 0.19 2.43 0.56 3.58 c 0.06 0.2 0.14 0.45 0.22 0.73 c 0.3 1 1.08 3.65 1.85 4.05 c 0.39 0.21 1.61 0.27 5.19 -0.59 L 52 88.83 c 1.45 -0.34 2.81 -0.92 4.54 -1.94 c 1.39 -0.82 3.05 -1.74 4.81 -2.36 c 0.39 -0.14 0.82 -0.23 1.29 -0.33 c 0.78 -0.17 1.84 -0.4 2.13 -0.81 c 0.73 -1.02 0.64 -2.53 0.55 -4.12 c -0.11 -1.94 -0.23 -4.13 1.15 -5.88 c 0.84 -1.07 1.93 -1.83 2.99 -2.56 c 0.65 -0.45 1.26 -0.87 1.8 -1.35 c 1.48 -1.32 1.65 -2.25 1.63 -4.23 c -0.59 0.09 -1.27 0.25 -1.97 0.42 c -2.61 0.61 -5.86 1.37 -7.6 -0.93 c -0.53 -0.71 -0.92 -1.52 -1.3 -2.31 c -0.34 -0.71 -0.66 -1.38 -1.07 -1.96 c -1.09 -1.53 -3.41 -4.23 -6.64 -5.01 c -0.94 -0.23 -1.89 -0.1 -2.9 0.04 c -0.53 0.07 -1.08 0.15 -1.65 0.18 c -2.05 0.1 -4.04 -0.86 -5.56 -1.71 c -0.77 -0.43 -1.4 -0.92 -2 -1.39 c -0.62 -0.48 -1.2 -0.94 -1.91 -1.31 c -0.67 -0.35 -1.51 -0.37 -2.42 -0.2 l 0.18 0.3 c -0.55 0.33 -1.07 0.17 -1.4 0.03 c -0.52 0.17 -1.05 0.38 -1.58 0.61 c -2.33 1.17 -4.48 2.19 -6.51 3.12 c -2.15 0.99 -3.21 2.4 -3.51 4.73 c -0.33 2.52 -0.4 5.08 1.37 6.66 c 2.42 2.17 5.13 3.44 8.06 3.77 c 0.47 0.05 1 0.03 1.56 0.01 C 36.33 70.29 36.63 70.27 36.94 70.27 z" stroke-linecap="round" />
</g>
		<g transform="matrix(1 0 0 1 1.709131254497926 -14.462566387469174)"  >
<path style="stroke: none; stroke-width: 1; stroke-dasharray: none; stroke-linecap: butt; stroke-dashoffset: 0; stroke-linejoin: miter; stroke-miterlimit: 4; fill: rgb(0,0,0); fill-rule: nonzero; opacity: 1;"  transform=" translate(-48.73913125449793, -31.537433612530826)" d="M 88.17 41.8 c -0.67 1.2 -0.89 2.09 -0.96 3.57 c -0.08 1.73 1.63 6.69 0.56 7.98 c -1.64 1.96 -3.51 -1.78 -4.25 -2.48 c -1.27 -1.2 -3.77 -0.76 -5.14 -0.06 c -2.64 1.36 -0.58 2.51 -0.16 4.35 c 0.47 2.06 -1.62 4.45 -2.97 5.46 c -1.63 1.22 -4.24 1.55 -6.25 1.08 c -1.41 -0.33 -2.28 -1.49 -3.29 -2.23 c -1.78 -1.31 -3.9 -2.75 -5.13 -4.61 c -1.06 -1.61 -0.78 -2.99 -1.38 -4.68 c -1.33 -0.05 -3.23 -0.29 -4.37 0.23 c -1.06 0.49 -1.92 2.41 -3.38 1.11 c -0.67 -0.6 -0.38 -2.97 -1.31 -3.33 c -1.52 -0.58 -1.32 1.38 -1.75 2.03 c -0.71 1.05 -1.34 1.21 -2.33 0.45 c -1.13 -0.87 -0.63 -1.57 -1.01 -2.8 c -0.72 -2.35 -3.25 -2.71 -5.42 -2.19 c -1.55 0.37 -4.54 2.73 -6.05 1.01 c -0.51 -0.58 -0.29 -2.1 0.3 -2.5 c 0.4 -0.26 1.21 0.15 1.67 -0.01 c 3.32 -1.13 1.95 -5.94 1 -8.21 c -0.3 -0.71 -0.95 -1.98 -0.4 -2.6 c 0.46 -0.52 3.57 -0.71 4.09 -0.37 c 1.21 0.79 0.01 3.09 1.8 3.98 c 1.96 0.97 6.48 0.58 7.7 -1.5 c 0.73 -1.25 0.47 -7.57 -2.15 -6.12 c -1.79 0.99 -0.06 4.12 -3.18 3.98 c -0.07 -1.7 -0.25 -3.31 0.68 -4.75 c 0.91 -1.43 2.79 -2.92 4.27 -3.83 c 0.89 -0.55 2.79 -1.82 3.74 -0.8 c 0.5 0.54 0.1 1.48 0.54 1.92 c 0.63 0.64 1.85 0.34 2.65 0.15 c 1.94 -0.47 3.65 -1.54 4.06 -3.63 c 0.32 -1.61 0.49 -5.35 -0.24 -6.92 c -0.45 -0.97 -1.75 -2.14 -2.95 -1.63 c -0.92 0.39 -0.34 0.76 -0.98 1.5 c -1.06 1.24 -3.2 1.76 -4.76 2.01 c -2.18 0.35 -4.59 -0.22 -6.66 0.52 c -2.37 0.85 -3.27 2.25 -4.88 3.93 c -1.93 2.02 -3.32 2.74 -6.14 2.88 c -1.88 0.1 -4.75 0.48 -6.51 -0.21 c -0.22 -2.8 1.51 -3.08 3.66 -4.18 c 1.54 -0.79 5.52 -3.79 5.85 -5.62 c 0.48 -2.67 -3.03 -3.54 -4.66 -1.96 c -1.72 1.66 -1.75 6.26 -5.17 5.59 c -0.09 -1.91 0.44 -2.35 1.18 -3.95 c 0.84 -1.79 0.06 -2.03 -1.76 -2.2 c -2.57 -0.23 -5.96 2.11 -5.59 4.98 c 1.32 0.03 1.96 0.09 2.96 -0.9 c 0.61 -0.6 0.62 -1.33 1.53 -1.62 c 0.95 2.39 -1.86 3.95 -2.01 6.27 c -0.07 1.12 0.21 1.98 -0.53 2.87 c -0.66 0.79 -1.85 1.38 -2.6 2.25 c -1.83 2.12 -3.39 1.78 -5.92 1.07 c -1.09 -0.3 -2.03 -0.67 -3.13 -0.99 C 9.73 25.7 8 26.27 7.7 24.78 c -0.27 -1.35 1.57 -3.2 2.17 -4.28 c 0.95 -1.72 1.64 -3.52 3 -5.01 c 2.68 -2.9 6.63 -4.5 9.58 -6.83 C 24 7.45 25.61 7.14 27.2 6.09 c 2.05 -1.36 3.41 -2.1 5.63 -2.87 c 5.16 -1.79 11.05 -2.05 16.57 -2.05 c 6.29 0 11.6 1.69 16.85 4.85 c 2.31 1.39 5.07 2.43 7.3 3.91 c 2.07 1.38 3.22 3.79 5.2 5.42 C 85.85 21.19 93.14 32.79 88.17 41.8 z" stroke-linecap="round" />
</g>
		<g transform="matrix(1 0 0 1 1.746609268892655 -14.464999999999996)"  >
<path style="stroke: none; stroke-width: 1; stroke-dasharray: none; stroke-linecap: butt; stroke-dashoffset: 0; stroke-linejoin: miter; stroke-miterlimit: 4; fill: rgb(0,0,0); fill-rule: nonzero; opacity: 1;"  transform=" translate(-48.776609268892656, -31.535000000000004)" d="M 70.84 62.91 c -0.72 0 -1.42 -0.08 -2.08 -0.23 c -1.25 -0.29 -2.11 -1.06 -2.87 -1.73 c -0.26 -0.23 -0.52 -0.46 -0.79 -0.66 l -0.52 -0.38 c -1.71 -1.24 -3.64 -2.65 -4.85 -4.49 c -0.77 -1.16 -0.94 -2.2 -1.11 -3.21 c -0.06 -0.36 -0.12 -0.71 -0.2 -1.06 c -0.03 0 -0.06 0 -0.08 0 c -0.46 -0.03 -0.95 -0.06 -1.44 -0.06 c -0.77 0 -1.33 0.08 -1.67 0.24 c -0.18 0.08 -0.42 0.31 -0.66 0.53 c -0.54 0.5 -1.21 1.12 -2.15 1.12 c -0.57 0 -1.13 -0.24 -1.65 -0.7 c -0.56 -0.5 -0.7 -1.31 -0.83 -2.1 c -0.05 -0.28 -0.12 -0.7 -0.2 -0.95 c -0.04 0.14 -0.08 0.31 -0.12 0.43 c -0.09 0.39 -0.19 0.79 -0.42 1.12 c -0.23 0.34 -0.92 1.37 -2.08 1.37 c -0.54 0 -1.1 -0.22 -1.69 -0.69 c -1.09 -0.85 -1.16 -1.71 -1.21 -2.41 c -0.02 -0.29 -0.04 -0.57 -0.14 -0.89 c -0.34 -1.12 -1.28 -1.69 -2.77 -1.69 c -0.47 0 -0.96 0.06 -1.46 0.18 c -0.33 0.08 -0.84 0.32 -1.38 0.57 c -1.07 0.51 -2.29 1.08 -3.47 1.08 c -0.88 0 -1.64 -0.33 -2.19 -0.96 c -0.43 -0.49 -0.61 -1.26 -0.5 -2.12 c 0.05 -0.4 0.25 -1.38 1 -1.88 c 0.41 -0.28 0.98 -0.29 1.62 -0.19 c 0.12 0.02 0.24 0.05 0.35 0.05 c 0.49 -0.17 0.86 -0.5 1.09 -1.01 c 0.65 -1.44 0.03 -3.97 -0.76 -5.85 l -0.1 -0.23 c -0.39 -0.89 -1.04 -2.39 -0.13 -3.42 c 0.72 -0.81 2.93 -0.87 3.6 -0.87 c 1.13 0 1.55 0.18 1.79 0.33 c 0.95 0.62 1.04 1.69 1.11 2.47 c 0.08 0.88 0.15 1.23 0.59 1.45 c 0.52 0.26 1.33 0.4 2.24 0.4 c 1.9 0 3.64 -0.64 4.15 -1.51 c 0.24 -0.43 0.4 -2.77 -0.17 -4.23 c -0.18 -0.45 -0.35 -0.59 -0.38 -0.6 c -0.02 0 -0.09 0 -0.25 0.09 c -0.29 0.16 -0.38 0.51 -0.51 1.26 c -0.17 1.03 -0.46 2.97 -3.2 2.84 l -0.91 -0.04 l -0.06 -1.34 c -0.08 -1.63 -0.16 -3.32 0.86 -4.9 c 1.02 -1.59 3.04 -3.18 4.59 -4.14 l 0.13 -0.08 c 0.75 -0.47 2 -1.25 3.19 -1.25 c 0.67 0 1.25 0.24 1.68 0.71 c 0.51 0.55 0.54 1.22 0.56 1.67 c 0 0.08 0.01 0.19 0.02 0.27 c 0.28 0.12 1.09 -0.02 1.63 -0.15 c 1.93 -0.46 3.05 -1.43 3.33 -2.86 c 0.33 -1.68 0.41 -5.07 -0.16 -6.3 c -0.29 -0.64 -1.12 -1.36 -1.65 -1.13 c -0.01 0 -0.02 0.01 -0.03 0.01 c -0.07 0.34 -0.18 0.75 -0.58 1.21 c -0.99 1.15 -2.74 1.92 -5.36 2.35 c -1.09 0.18 -2.05 0.15 -2.95 0.13 l -0.77 -0.01 c -0.93 0 -1.91 0.04 -2.76 0.35 c -1.7 0.61 -2.51 1.51 -3.64 2.76 c -0.27 0.3 -0.55 0.61 -0.85 0.92 c -2.16 2.26 -3.82 3.04 -6.81 3.19 c -0.33 0.02 -0.69 0.04 -1.07 0.07 c -0.81 0.06 -1.74 0.12 -2.64 0.12 c -1.37 0 -2.39 -0.15 -3.21 -0.47 l -0.58 -0.23 l -0.05 -0.63 c -0.24 -3.06 1.55 -3.89 3.27 -4.7 c 0.3 -0.14 0.61 -0.28 0.93 -0.45 c 1.79 -0.92 5.1 -3.69 5.32 -4.91 c 0.08 -0.42 0.01 -0.75 -0.21 -1.02 c -0.55 -0.66 -2.08 -0.71 -2.77 -0.05 c -0.44 0.43 -0.8 1.27 -1.15 2.08 c -0.73 1.72 -1.65 3.86 -4.08 3.86 c -0.27 0 -0.55 -0.03 -0.84 -0.08 l -0.77 -0.15 l -0.04 -0.79 c -0.01 -0.29 -0.01 -0.56 0 -0.81 c -0.22 0.44 -0.48 0.85 -0.72 1.23 c -0.48 0.75 -0.93 1.45 -0.97 2.18 c -0.02 0.26 -0.01 0.51 -0.01 0.74 c 0.02 0.83 0.04 1.76 -0.76 2.71 c -0.4 0.48 -0.92 0.87 -1.42 1.25 c -0.45 0.34 -0.88 0.66 -1.19 1.01 c -1.16 1.34 -2.38 1.96 -3.84 1.96 c -0.95 0 -1.93 -0.25 -3.1 -0.58 c -0.6 -0.17 -1.16 -0.35 -1.73 -0.54 c -0.46 -0.15 -0.92 -0.31 -1.41 -0.45 c -0.3 -0.09 -0.68 -0.11 -1.07 -0.13 c -0.97 -0.06 -2.6 -0.16 -2.96 -1.93 c -0.28 -1.41 0.77 -2.85 1.62 -4.01 c 0.27 -0.36 0.52 -0.71 0.65 -0.96 c 0.25 -0.45 0.48 -0.9 0.71 -1.36 c 0.66 -1.3 2.74 -1.97 3.83 -3.16 c 1.73 -1.87 2.51 -3.88 4.62 -5.17 c 1.33 -0.81 2.58 -1.58 3.69 -2.45 c 0.95 -0.75 1.9 -1.18 2.81 -1.59 c 0.69 -0.31 1.35 -0.61 1.99 -1.04 c 1.98 -1.32 3.44 -2.14 5.86 -2.98 c 5.32 -1.85 11.27 -2.1 16.9 -2.1 c 6.19 0 11.7 1.59 17.37 4.99 c 1 0.6 2.12 1.15 3.2 1.68 c 1.4 0.69 2.85 1.4 4.13 2.25 c 1.26 0.84 2.18 1.98 3.07 3.09 c 0.71 0.88 1.38 1.71 2.21 2.39 c 6.9 5.68 15.17 17.75 9.66 27.71 c -0.58 1.04 -0.77 1.77 -0.83 3.13 c -0.02 0.5 0.18 1.54 0.38 2.55 c 0.57 2.92 0.87 4.92 -0.05 6.02 c -0.64 0.76 -1.32 0.92 -1.78 0.92 c -1.48 0 -2.6 -1.54 -3.41 -2.66 c -0.18 -0.25 -0.41 -0.57 -0.5 -0.65 c -0.42 -0.4 -1.09 -0.48 -1.57 -0.48 c -0.79 0 -1.74 0.23 -2.42 0.58 c -0.7 0.36 -0.78 0.59 -0.78 0.59 c -0.04 0.13 0.23 0.62 0.39 0.92 c 0.27 0.49 0.58 1.05 0.74 1.73 c 0.61 2.69 -1.92 5.42 -3.34 6.48 C 74.58 62.37 72.76 62.91 70.84 62.91 z M 56.91 49.09 c 0.52 0 1.05 0.03 1.55 0.06 c 0.27 0.02 0.52 0.03 0.76 0.04 l 0.68 0.02 l 0.23 0.64 c 0.26 0.74 0.38 1.43 0.47 2.03 c 0.14 0.87 0.27 1.63 0.8 2.43 c 1.01 1.53 2.79 2.83 4.36 3.97 l 0.53 0.39 c 0.32 0.23 0.62 0.5 0.93 0.78 c 0.63 0.57 1.23 1.1 1.99 1.28 c 0.5 0.12 1.05 0.18 1.62 0.18 c 1.47 0 2.9 -0.41 3.81 -1.09 c 1.24 -0.93 2.92 -2.98 2.59 -4.44 c -0.09 -0.4 -0.32 -0.81 -0.54 -1.21 c -0.39 -0.72 -0.84 -1.53 -0.56 -2.46 c 0.21 -0.7 0.78 -1.27 1.77 -1.78 c 0.98 -0.5 2.23 -0.81 3.34 -0.81 c 1.22 0 2.24 0.35 2.94 1.02 c 0.23 0.21 0.46 0.53 0.75 0.93 c 0.37 0.5 1.33 1.83 1.8 1.83 c 0.03 0 0.13 -0.05 0.25 -0.2 c 0.38 -0.5 -0.13 -3.11 -0.38 -4.36 c -0.24 -1.23 -0.45 -2.29 -0.41 -3.03 c 0.08 -1.65 0.36 -2.7 1.08 -4.01 c 4.88 -8.83 -3.04 -20.14 -9.18 -25.2 c -0.98 -0.81 -1.75 -1.76 -2.49 -2.68 c -0.83 -1.03 -1.62 -2.01 -2.62 -2.68 c -1.18 -0.79 -2.56 -1.47 -3.91 -2.12 c -1.12 -0.55 -2.28 -1.12 -3.35 -1.76 c -5.34 -3.21 -10.53 -4.7 -16.32 -4.7 c -5.47 0 -11.21 0.24 -16.25 1.99 c -2.23 0.77 -3.52 1.51 -5.41 2.76 c -0.78 0.52 -1.54 0.86 -2.27 1.19 c -0.84 0.38 -1.64 0.74 -2.4 1.34 c -1.2 0.95 -2.57 1.78 -3.88 2.58 c -1.99 1.22 -4.05 2.47 -5.58 4.14 c -0.91 0.98 -1.5 2.15 -2.12 3.39 c -0.24 0.48 -0.48 0.95 -0.74 1.43 c -0.2 0.36 -0.49 0.75 -0.79 1.17 c -0.52 0.71 -1.38 1.89 -1.27 2.43 c 0.04 0.19 0.05 0.27 1.12 0.33 c 0.47 0.03 1 0.06 1.52 0.21 c 0.52 0.15 1 0.31 1.48 0.47 c 0.53 0.18 1.06 0.35 1.63 0.51 c 1.02 0.29 1.86 0.5 2.56 0.5 c 0.64 0 1.36 -0.15 2.33 -1.27 c 0.45 -0.52 0.98 -0.92 1.5 -1.31 c 0.43 -0.32 0.83 -0.62 1.09 -0.93 c 0.3 -0.36 0.31 -0.67 0.29 -1.39 c -0.01 -0.29 -0.01 -0.59 0.01 -0.91 c 0.08 -1.23 0.72 -2.24 1.28 -3.12 c 0.01 -0.01 0.02 -0.03 0.03 -0.04 c -0.81 0.5 -1.55 0.52 -2.64 0.5 l -1.04 -0.02 l -0.11 -0.85 c -0.17 -1.33 0.28 -2.68 1.27 -3.8 c 1.34 -1.53 3.52 -2.47 5.4 -2.3 c 1 0.09 2.23 0.2 2.78 1.14 c 0.47 0.81 0.14 1.75 -0.2 2.48 c -0.17 0.35 -0.32 0.65 -0.46 0.93 c -0.33 0.63 -0.53 1.02 -0.6 1.62 c 0.75 -0.2 1.19 -1.04 1.86 -2.6 c 0.43 -1 0.87 -2.03 1.6 -2.74 c 0.7 -0.68 1.71 -1.07 2.77 -1.07 c 1.17 0 2.26 0.47 2.93 1.27 c 0.6 0.71 0.83 1.66 0.65 2.65 c -0.45 2.5 -5.2 5.73 -6.38 6.33 c -0.34 0.18 -0.68 0.33 -1 0.48 c -1.39 0.65 -2.05 0.96 -2.13 2.05 c 0.5 0.1 1.11 0.15 1.85 0.15 c 0.83 0 1.72 -0.06 2.5 -0.12 c 0.39 -0.03 0.77 -0.05 1.11 -0.07 c 2.48 -0.13 3.66 -0.68 5.47 -2.58 c 0.29 -0.31 0.56 -0.6 0.82 -0.89 c 1.17 -1.29 2.28 -2.52 4.45 -3.29 c 1.42 -0.51 2.86 -0.48 4.23 -0.46 l 0.77 0.01 c 0.56 0 1.21 -0.01 1.84 -0.12 c 2.1 -0.34 3.5 -0.9 4.16 -1.67 c 0.1 -0.12 0.11 -0.16 0.14 -0.32 c 0.1 -0.53 0.32 -1.07 1.21 -1.45 c 0.32 -0.13 0.65 -0.2 0.99 -0.2 c 1.42 0 2.71 1.17 3.25 2.33 c 0.88 1.89 0.63 5.9 0.31 7.53 c -0.44 2.24 -2.1 3.76 -4.81 4.41 c -0.48 0.11 -1.11 0.27 -1.74 0.27 c -0.78 0 -1.4 -0.23 -1.85 -0.69 c -0.48 -0.49 -0.51 -1.1 -0.53 -1.54 c -0.01 -0.14 -0.02 -0.36 -0.05 -0.43 c -0.01 0 -0.04 -0.04 -0.19 -0.04 c -0.61 0 -1.6 0.62 -2.13 0.95 l -0.14 0.09 c -1.3 0.8 -3.11 2.21 -3.96 3.52 c -0.55 0.86 -0.61 1.85 -0.57 2.97 c 0.1 -0.17 0.16 -0.46 0.24 -0.94 c 0.15 -0.86 0.34 -2.03 1.51 -2.67 c 0.41 -0.23 0.82 -0.34 1.22 -0.34 c 0.46 0 1.33 0.17 1.96 1.27 c 0.99 1.73 1.04 5.33 0.32 6.56 c -1.07 1.85 -3.74 2.51 -5.88 2.51 c -1.22 0 -2.33 -0.22 -3.13 -0.61 c -1.49 -0.74 -1.61 -2.14 -1.69 -3.07 c -0.03 -0.37 -0.07 -0.78 -0.17 -0.92 c -0.11 -0.02 -0.35 -0.05 -0.73 -0.05 c -0.9 0 -1.75 0.14 -2.1 0.25 c 0.03 0.25 0.34 0.96 0.46 1.24 l 0.11 0.26 c 0.59 1.41 1.85 4.97 0.74 7.44 c -0.45 1.01 -1.26 1.73 -2.34 2.1 c -0.35 0.12 -0.78 0.1 -1.25 0.02 c -0.08 -0.01 -0.15 -0.03 -0.23 -0.04 c -0.1 0.24 -0.14 0.77 -0.04 0.95 c 0.1 0.11 0.28 0.26 0.67 0.26 c 0.73 0 1.73 -0.47 2.61 -0.89 c 0.64 -0.3 1.24 -0.59 1.77 -0.71 c 0.65 -0.15 1.3 -0.23 1.92 -0.23 c 2.37 0 4.08 1.13 4.69 3.1 c 0.16 0.53 0.2 0.97 0.22 1.33 c 0.04 0.56 0.05 0.68 0.44 0.98 c 0.32 0.25 0.45 0.27 0.47 0.27 c 0 0 0.15 -0.07 0.42 -0.48 c 0.03 -0.06 0.09 -0.31 0.13 -0.48 c 0.17 -0.68 0.51 -2.1 1.95 -2.1 c 0.27 0 0.55 0.06 0.85 0.17 c 1.05 0.4 1.26 1.6 1.43 2.57 c 0.06 0.32 0.15 0.85 0.24 0.99 c 0.13 0.11 0.24 0.15 0.27 0.15 c 0.16 0 0.56 -0.37 0.8 -0.59 c 0.34 -0.31 0.72 -0.66 1.18 -0.88 C 55.03 49.22 55.83 49.09 56.91 49.09 z M 25.97 13.15 c -1.21 0 -2.6 0.66 -3.46 1.64 c -0.29 0.33 -0.61 0.8 -0.74 1.36 c 0.46 -0.03 0.74 -0.15 1.22 -0.62 c 0.13 -0.13 0.23 -0.3 0.35 -0.49 c 0.27 -0.45 0.64 -1.07 1.57 -1.38 l 0.9 -0.29 l 0.35 0.88 c 0.17 0.43 0.25 0.84 0.26 1.22 c 0.1 -0.23 0.22 -0.45 0.34 -0.69 c 0.13 -0.25 0.27 -0.53 0.43 -0.85 c 0.14 -0.3 0.2 -0.49 0.22 -0.6 c -0.17 -0.05 -0.5 -0.12 -1.17 -0.17 C 26.14 13.15 26.06 13.15 25.97 13.15 z" stroke-linecap="round" />
</g>
		<g transform="matrix(1 0 0 1 -39.2543806127256 13.369214944711103)"  >
<path style="stroke: none; stroke-width: 1; stroke-dasharray: none; stroke-linecap: butt; stroke-dashoffset: 0; stroke-linejoin: miter; stroke-miterlimit: 4; fill: rgb(0,0,0); fill-rule: nonzero; opacity: 1;"  transform=" translate(-7.7756193872744035, -59.3692149447111)" d="M 1.53 46.5 c 0 5.17 4.02 8.35 6.04 12.64 c 1 2.11 2.61 4.24 4.04 6.2 c 0.84 1.15 3.72 3.94 2.73 5.67 c -0.54 0.94 -4.07 1.47 -4.77 1.12 c -1.95 -0.95 -1.84 -4.07 -2.4 -5.75 c -0.71 -2.13 -2.34 -3.58 -2.8 -5.88 c -0.38 -1.92 -0.98 -3.7 -1.5 -5.54 c -0.62 -2.19 -2.88 -5.36 -1.33 -7.46" stroke-linecap="round" />
</g>
		<g transform="matrix(1 0 0 1 -39.26119167360139 13.86)"  >
<path style="stroke: none; stroke-width: 1; stroke-dasharray: none; stroke-linecap: butt; stroke-dashoffset: 0; stroke-linejoin: miter; stroke-miterlimit: 4; fill: rgb(0,0,0); fill-rule: nonzero; opacity: 1;"  transform=" translate(-7.768808326398609, -59.86)" d="M 10.38 73.22 c -0.54 0 -0.98 -0.06 -1.24 -0.19 c -1.87 -0.91 -2.26 -3.09 -2.58 -4.84 c -0.1 -0.57 -0.2 -1.1 -0.33 -1.5 c -0.28 -0.83 -0.73 -1.57 -1.21 -2.35 c -0.66 -1.08 -1.34 -2.19 -1.63 -3.65 C 3.11 59.3 2.72 58 2.31 56.62 c -0.14 -0.46 -0.27 -0.92 -0.41 -1.39 c -0.15 -0.52 -0.41 -1.13 -0.7 -1.79 c -0.83 -1.94 -1.87 -4.32 -0.65 -6.28 c -0.01 -0.22 -0.02 -0.44 -0.02 -0.66 h 2 c 0 3.11 1.63 5.47 3.36 7.97 c 0.92 1.33 1.87 2.71 2.59 4.24 c 0.87 1.84 2.25 3.72 3.58 5.54 l 0.36 0.5 c 0.14 0.2 0.35 0.44 0.58 0.72 c 1.34 1.6 3.36 4.02 2.2 6.04 C 14.57 72.62 12.03 73.22 10.38 73.22 z M 3.99 55.23 c 0.08 0.27 0.16 0.54 0.24 0.82 c 0.41 1.36 0.82 2.77 1.12 4.25 c 0.22 1.11 0.78 2.03 1.38 3 c 0.51 0.84 1.05 1.71 1.4 2.76 c 0.18 0.53 0.29 1.13 0.4 1.77 c 0.25 1.37 0.53 2.93 1.49 3.4 c 0.58 0.15 3.07 -0.31 3.49 -0.76 c 0.44 -0.77 -1.29 -2.84 -2.03 -3.72 c -0.27 -0.32 -0.5 -0.6 -0.66 -0.82 l -0.36 -0.5 c -1.39 -1.89 -2.82 -3.84 -3.77 -5.86 c -0.65 -1.38 -1.55 -2.69 -2.43 -3.96 C 4.16 55.48 4.07 55.36 3.99 55.23 z" stroke-linecap="round" />
</g>
		<g transform="matrix(1 0 0 1 12.482421811622121 8.352676267231573)"  >
<path style="stroke: none; stroke-width: 1; stroke-dasharray: none; stroke-linecap: butt; stroke-dashoffset: 0; stroke-linejoin: miter; stroke-miterlimit: 4; fill: rgb(0,0,0); fill-rule: nonzero; opacity: 1;"  transform=" translate(-59.51242181162212, -54.35267626723157)" d="M 56.72 57.66 c -0.14 -0.88 0.11 -1.52 0.53 -2 l -0.75 -1.16 l 0.55 0.84 l -0.6 -0.8 c 0.1 -0.08 0.27 -0.28 0.5 -0.52 c 1.85 -1.96 3.36 -3.42 4.67 -2.85 c 0.71 0.32 1.03 1.08 0.94 2.28 c -0.12 1.62 -1.53 2.28 -2.56 2.77 c -1.2 0.56 -1.35 0.74 -1.29 1.13 L 56.72 57.66 z M 60.55 53.32 c -0.26 0.2 -0.59 0.49 -1 0.88 C 60.21 53.88 60.51 53.65 60.55 53.32 z" stroke-linecap="round" />
</g>
</g>
</g>
<g transform="matrix(0.5136917301683912 0 0 0.0983373944473024 250.49999999999994 307.0848396127104)"  >
<rect style="stroke: none; stroke-width: 1; stroke-dasharray: none; stroke-linecap: butt; stroke-dashoffset: 0; stroke-linejoin: miter; stroke-miterlimit: 4; fill: rgb(244,243,239); fill-rule: evenodd; opacity: 1;"  x="-393.5" y="-393.5" rx="0" ry="0" width="787" height="787" />
</g>
<g transform="matrix(1 0 0 1 249.2745531431309 307.74233961271034)" style=""  ><path fill="#B4AF91" opacity="1" d="M-101.41-0.78L-95.02-0.78L-95.02 10.73Q-97.54 11.26-100.20 11.56Q-102.86 11.86-105.59 11.86L-105.59 11.86L-106.87 11.86Q-110.96 11.86-113.64 10.94Q-116.32 10.02-117.91 8.44Q-119.51 6.86-120.15 4.73Q-120.79 2.60-120.79 0.18L-120.79 0.18L-120.79-1.66Q-120.79-4.08-120.15-6.21Q-119.51-8.34-117.91-9.92Q-116.32-11.50-113.64-12.42Q-110.96-13.34-106.87-13.34L-106.87-13.34L-105.59-13.34Q-103.04-13.34-100.55-13.04Q-98.07-12.74-95.73-12.17L-95.73-12.17L-95.73-6.39Q-98.35-7.10-101.07-7.40Q-103.78-7.70-105.77-7.70L-105.77-7.70Q-108.97-7.70-110.69-7.18Q-112.41-6.67-113.21-5.75Q-114.01-4.82-114.13-3.55Q-114.26-2.27-114.26-0.74L-114.26-0.74Q-114.26 0.79-114.13 2.06Q-114.01 3.34-113.21 4.28Q-112.41 5.22-110.69 5.74Q-108.97 6.25-105.77 6.25L-105.77 6.25Q-103.86 6.25-101.41 6.04L-101.41 6.04L-101.41-0.78Z"/><path fill="#B4AF91" opacity="1" d="M-61.75-12.63L-61.75-6.95L-78.12-6.95L-78.12-3.40L-65.30-3.40L-65.30 2.28L-78.12 2.28L-78.12 5.47L-61.75 5.47L-61.75 11.15L-84.51 11.15L-84.51-12.63L-61.75-12.63Z"/><path fill="#B4AF91" opacity="1" d="M-52.34 0.18L-52.34-1.66Q-52.34-4.08-51.74-6.21Q-51.14-8.34-49.63-9.92Q-48.12-11.50-45.56-12.42Q-43.01-13.34-39.14-13.34L-39.14-13.34L-37.86-13.34Q-33.99-13.34-31.44-12.42Q-28.88-11.50-27.37-9.92Q-25.86-8.34-25.26-6.21Q-24.65-4.08-24.65-1.66L-24.65-1.66L-24.65 0.18Q-24.65 2.60-25.26 4.73Q-25.86 6.86-27.37 8.44Q-28.88 10.02-31.44 10.94Q-33.99 11.86-37.86 11.86L-37.86 11.86L-39.14 11.86Q-43.01 11.86-45.56 10.94Q-48.12 10.02-49.63 8.44Q-51.14 6.86-51.74 4.73Q-52.34 2.60-52.34 0.18L-52.34 0.18ZM-45.95-0.74L-45.95-0.74Q-45.95 0.61-45.83 1.87Q-45.71 3.13-45.01 4.09Q-44.32 5.05-42.81 5.61Q-41.30 6.18-38.50 6.18L-38.50 6.18Q-35.70 6.18-34.19 5.61Q-32.68 5.05-31.99 4.09Q-31.29 3.13-31.17 1.87Q-31.04 0.61-31.04-0.74L-31.04-0.74Q-31.04-2.09-31.17-3.33Q-31.29-4.57-31.99-5.53Q-32.68-6.49-34.19-7.06Q-35.70-7.63-38.50-7.63L-38.50-7.63Q-41.30-7.63-42.81-7.06Q-44.32-6.49-45.01-5.53Q-45.71-4.57-45.83-3.33Q-45.95-2.09-45.95-0.74Z"/><path fill="#B4AF91" opacity="1" d="M-14.86 0.18L-14.86-1.66Q-14.86-4.08-14.25-6.21Q-13.65-8.34-12.19-9.92Q-10.74-11.50-8.25-12.42Q-5.77-13.34-2.01-13.34L-2.01-13.34L-0.73-13.34Q1.69-13.34 3.96-13.04Q6.23-12.74 8.43-12.17L8.43-12.17L8.43-6.39Q7.19-6.74 5.93-6.99Q4.67-7.24 3.44-7.40Q2.22-7.56 1.10-7.63Q-0.02-7.70-0.91-7.70L-0.91-7.70Q-3.67-7.70-5.18-7.18Q-6.69-6.67-7.38-5.75Q-8.08-4.82-8.20-3.55Q-8.32-2.27-8.32-0.74L-8.32-0.74Q-8.32 0.79-8.20 2.06Q-8.08 3.34-7.38 4.28Q-6.69 5.22-5.18 5.74Q-3.67 6.25-0.91 6.25L-0.91 6.25Q-0.02 6.25 1.10 6.18Q2.22 6.11 3.44 5.95Q4.67 5.79 5.93 5.53Q7.19 5.26 8.43 4.90L8.43 4.90L8.43 10.73Q6.23 11.26 3.96 11.56Q1.69 11.86-0.73 11.86L-0.73 11.86L-2.01 11.86Q-5.77 11.86-8.25 10.94Q-10.74 10.02-12.19 8.44Q-13.65 6.86-14.25 4.73Q-14.86 2.60-14.86 0.18L-14.86 0.18Z"/><path fill="#B4AF91" opacity="1" d="M42.37 11.15L36.19 11.15L31.44 3.70Q29.52 3.70 27.74 3.66Q25.97 3.63 24.26 3.34L24.26 3.34L24.26 11.15L17.87 11.15L17.87-12.63Q20.93-12.99 24.28-13.17Q27.64-13.34 30.87-13.34L30.87-13.34L31.86-13.34Q34.84-13.34 36.80-12.72Q38.75-12.10 39.92-11.04Q41.09-9.97 41.55-8.55Q42.01-7.13 42.01-5.53L42.01-5.53L42.01-4.11Q42.01-1.88 41.13-0.05Q40.24 1.78 37.97 2.77L37.97 2.77L42.37 9.73L42.37 11.15ZM30.94-7.66L30.94-7.66Q29.70-7.66 27.87-7.59Q26.04-7.52 24.26-7.34L24.26-7.34L24.26-2.30Q25.93-2.09 27.42-2.04Q28.91-1.98 29.84-1.98L29.84-1.98Q31.97-1.98 33.14-2.18Q34.31-2.37 34.86-2.76Q35.41-3.15 35.52-3.76Q35.62-4.36 35.62-5.21L35.62-5.21Q35.62-5.68 35.55-6.12Q35.48-6.56 35.04-6.92Q34.59-7.27 33.64-7.47Q32.68-7.66 30.94-7.66Z"/><path fill="#B4AF91" opacity="1" d="M51.78 0.18L51.78-1.66Q51.78-4.08 52.38-6.21Q52.98-8.34 54.49-9.92Q56.00-11.50 58.56-12.42Q61.11-13.34 64.98-13.34L64.98-13.34L66.26-13.34Q70.13-13.34 72.69-12.42Q75.24-11.50 76.75-9.92Q78.26-8.34 78.86-6.21Q79.47-4.08 79.47-1.66L79.47-1.66L79.47 0.18Q79.47 2.60 78.86 4.73Q78.26 6.86 76.75 8.44Q75.24 10.02 72.69 10.94Q70.13 11.86 66.26 11.86L66.26 11.86L64.98 11.86Q61.11 11.86 58.56 10.94Q56.00 10.02 54.49 8.44Q52.98 6.86 52.38 4.73Q51.78 2.60 51.78 0.18L51.78 0.18ZM58.17-0.74L58.17-0.74Q58.17 0.61 58.29 1.87Q58.42 3.13 59.11 4.09Q59.80 5.05 61.31 5.61Q62.82 6.18 65.62 6.18L65.62 6.18Q68.43 6.18 69.94 5.61Q71.44 5.05 72.14 4.09Q72.83 3.13 72.95 1.87Q73.08 0.61 73.08-0.74L73.08-0.74Q73.08-2.09 72.95-3.33Q72.83-4.57 72.14-5.53Q71.44-6.49 69.94-7.06Q68.43-7.63 65.62-7.63L65.62-7.63Q62.82-7.63 61.31-7.06Q59.80-6.49 59.11-5.53Q58.42-4.57 58.29-3.33Q58.17-2.09 58.17-0.74Z"/><path fill="#B4AF91" opacity="1" d="M87.38-12.63L92.92-12.63L97.68 3.02L102.54-12.63L107.05-12.63L111.81 3.02L116.67-12.63L122.21-12.63L122.21-11.21L114.04 11.15L109.68 11.15L104.71-4.22L99.91 11.15L95.55 11.15L87.38-11.21L87.38-12.63Z"/></g></svg>